Altitude (2010) 1080p x264 AC3 Eng-NLsubs-DMT

PLOT

After a mysterious malfunction sends their small plane climbing out of control, 
a rookie pilot and her four teenage friends find themselves trapped in a deadly showdown with a supernatural force. 
 
http://www.youtube.com/watch?v=uurV9EsURIo

MM:    http://www.moviemeter.nl/film/57217

IMDB:    http://www.imdb.com/title/tt1407049/

INFO

Source= Altitude (2010) 1080p Bluray X264-BRMP
BITRATE: 9 760 Kbps
VIDEO RESOLUTION: 1920x800
ASPECT: 2.40:1
FORMAT: AC-3
AUDIO BITRATE: 640 Kbps
LANGUAGE: English
SUBTITLES: English - Custom NL by Gollums-Team 

Enjoy

Player Info

General
Complete name                    : Altitude.2010.1080p.x264.AC3.Eng.NLsubs.mkv
Format                           : Matroska
File size                        : 6.55 GiB
Duration                         : 1h 30mn
Overall bit rate                 : 10.4 Mbps
Encoded date                     : UTC 2010-10-24 16:46:15
Writing application              : mkvmerge v4.3.0 ('Escape from the Island') built on Sep  5 2010 10:30:51
Writing library                  : libebml v1.0.0 + libmatroska v1.0.0

Video
ID                               : 1
Format                           : AVC
Format/Info                      : Advanced Video Codec
Format profile                   : High@L4.1
Format settings, CABAC           : Yes
Format settings, ReFrames        : 5 frames
Muxing mode                      : Container profile=Unknown@4.1
Codec ID                         : V_MPEG4/ISO/AVC
Duration                         : 1h 30mn
Bit rate                         : 9 760 Kbps
Width                            : 1 920 pixels
Height                           : 800 pixels
Display aspect ratio             : 2.40:1
Frame rate                       : 23.976 fps
Color space                      : YUV
Chroma subsampling               : 4:2:0
Bit depth                        : 8 bits
Scan type                        : Progressive
Bits/(Pixel*Frame)               : 0.265
Stream size                      : 6.02 GiB (92%)
Writing library                  : x264 core 107 r1745 4785e8e
Encoding settings                : cabac=1 / ref=5 / deblock=1:0:0 / analyse=0x3:0x133 / 
me=umh / subme=7 / psy=1 / psy_rd=1.00:0.00 / mixed_ref=1 / me_range=16 / chroma_me=1 / 
trellis=1 / 8x8dct=1 / cqm=0 / deadzone=21,11 / fast_pskip=0 / chroma_qp_offset=-2 / 
threads=12 / sliced_threads=0 / nr=0 / decimate=1 / interlaced=0 / constrained_intra=0 / 
bframes=3 / b_pyramid=2 / b_adapt=1 / b_bias=0 / direct=1 / weightb=1 / open_gop=0 / 
weightp=2 / keyint=250 / keyint_min=23 / scenecut=40 / intra_refresh=0 / rc_lookahead=40 / 
rc=2pass / mbtree=1 / bitrate=9760 / ratetol=1.0 / qcomp=0.60 / qpmin=10 / qpmax=51 / 
qpstep=4 / cplxblur=20.0 / qblur=0.5 / ip_ratio=1.40 / aq=1:1.00
Language                         : English

Audio
ID                               : 2
Format                           : AC-3
Format/Info                      : Audio Coding 3
Mode extension                   : CM (complete main)
Muxing mode                      : Header stripping
Codec ID                         : A_AC3
Duration                         : 1h 30mn
Bit rate mode                    : Constant
Bit rate                         : 640 Kbps
Channel(s)                       : 6 channels
Channel positions                : Front: L C R, Side: L R, LFE
Sampling rate                    : 48.0 KHz
Bit depth                        : 16 bits
Stream size                      : 413 MiB (6%)
Language                         : English

Text #1
ID                               : 3
Format                           : UTF-8
Codec ID                         : S_TEXT/UTF8
Codec ID/Info                    : UTF-8 Plain Text
Language                         : English

Text #2
ID                               : 4
Format                           : UTF-8
Codec ID                         : S_TEXT/UTF8
Codec ID/Info                    : UTF-8 Plain Text
Title                            : Nederlands
Language                         : Dutch


